PathFileType	4	(x/y/z)	S06_PSF_T04
DataRate	CameraRate	NumFrames	NumMarkers	Units	OrigDataRate	OrigDataStartFrame	OrigNumFrames
240	240	4	51	mm	240	206	411
Frame#	Time	Sternum			R.Acromium			L.Acromium			Top.Head			R.ASIS			L.ASIS			R.PSIS			L.PSIS			R.Great.Tro			L.Great.Tro			R.Iliac.Crest			L.Iliac.Crest			V.Sacral			R.Thigh.Upper.Post			R.Thigh.Lower.Ant			R.Thigh.Lower.Post			R.Thigh.Upper.Ant			R.Knee.Lat			R.Knee.Med			R.Shank.Upper.Post			R.Shank.Lower.Ant			R.Shank.Lower.Post			R.Shank.Upper.Ant			R.Ankle.Lat			R.Ankle.Med			R.Heel.Upper			R.Heel.Med			R.Heel.Lat			R.Toe.Lat			R.Toe.Med			R.Toe.Tip			L.Thigh.Upper.Post			L.Thigh.Lower.Ant			L.Thigh.Lower.Post			L.Thigh.Upper.Ant			L.Knee.Lat			L.Knee.Med			L.Shank.Upper.Post			L.Shank.Lower.Ant			L.Shank.Lower.Post			L.Shank.Upper.Ant			L.Ankle.Lat			L.Ankle.Med			L.Heel.Upper			L.Heel.Med			L.Heel.Lat			L.Toe.Lat			L.Toe.Med			L.Toe.Tip			Cervical.Spine			Back			
		X1	Y1	Z1	X2	Y2	Z2	X3	Y3	Z3	X4	Y4	Z4	X5	Y5	Z5	X6	Y6	Z6	X7	Y7	Z7	X8	Y8	Z8	X9	Y9	Z9	X10	Y10	Z10	X11	Y11	Z11	X12	Y12	Z12	X13	Y13	Z13	X14	Y14	Z14	X15	Y15	Z15	X16	Y16	Z16	X17	Y17	Z17	X18	Y18	Z18	X19	Y19	Z19	X20	Y20	Z20	X21	Y21	Z21	X22	Y22	Z22	X23	Y23	Z23	X24	Y24	Z24	X25	Y25	Z25	X26	Y26	Z26	X27	Y27	Z27	X28	Y28	Z28	X29	Y29	Z29	X30	Y30	Z30	X31	Y31	Z31	X32	Y32	Z32	X33	Y33	Z33	X34	Y34	Z34	X35	Y35	Z35	X36	Y36	Z36	X37	Y37	Z37	X38	Y38	Z38	X39	Y39	Z39	X40	Y40	Z40	X41	Y41	Z41	X42	Y42	Z42	X43	Y43	Z43	X44	Y44	Z44	X45	Y45	Z45	X46	Y46	Z46	X47	Y47	Z47	X48	Y48	Z48	X49	Y49	Z49	X50	Y50	Z50	X51	Y51	Z51	

206	0.85417	-431.07	1293.3	353.19	-555.7	1495.8	526.39	-572.25	1499.8	174.62	-516.23	1815.8	354.71	-475.78	1063.2	482.09	-469.7	1055.8	228.17	NaN	NaN	NaN	-675.01	1075.7	308.23	-532.72	986.6	530.48	-562.98	974.36	175.72	-563.97	1133.9	512.68	-545.87	1125.6	192.27	-688.34	1041.3	353.35	-507.96	733.97	510.57	-444.61	660.26	473.88	-512.63	647.99	485.91	-437.87	748.89	496.07	-481.96	540.89	467.26	-472.31	552.53	339.86	-542.47	314.94	448.07	-485.72	247.9	425.66	-552.76	239.99	427.87	-477.81	321.5	444.27	-531.41	110.4	395.18	-514.59	125.68	312.78	-595.15	73.524	340.67	-583.78	43.807	309.57	-588.44	40.463	374.24	-412.27	36.269	423.93	-381.86	50.837	304.65	-317.53	62.444	354.13	-419.79	740.73	177.21	-352.5	673.76	233.17	-411.13	650.34	185.72	-368.7	767.39	221.24	-419.05	559.11	196.98	-390.01	553.61	320.65	-595.07	428.33	196.21	-591.8	339.21	195.79	-650.38	380.22	208.68	-541.41	389.38	189.27	-713.93	254.4	200.82	-699.17	255.99	289.89	-798.48	276.99	245.68	-819.44	251.93	272.23	-810.08	261.54	211.61	-686.86	133.64	170.98	-685.8	107.3	287.01	-616.89	76.186	237.16	-618.49	1551	353.05	-674.12	1278.6	352.04
207	0.85833	-426.17	1293.9	353.3	-550.48	1496.6	526.46	-567.35	1500.3	174.72	-510.8	1816.3	354.64	-471.13	1063.6	482.35	-464.82	1056.7	228.45	NaN	NaN	NaN	-670.19	1076.3	308.33	-528.17	986.96	530.57	-557.67	975.28	175.77	-559.13	1134.5	512.86	-541.11	1126.4	192.51	-683.52	1041.9	353.42	-504.75	734.19	510.58	-441.8	660.13	473.92	-509.9	648.21	485.98	-434.6	748.74	496.05	-480.02	540.89	467.24	-470.08	552.44	339.84	-541.43	315.14	448.09	-484.94	247.87	425.64	-552.03	240.23	427.9	-476.74	321.43	444.26	-531.23	110.52	395.17	-514.38	125.76	312.8	-595.14	73.634	340.64	-583.85	43.869	309.55	-588.41	40.571	374.24	-412.25	36.221	423.95	-381.8	50.769	304.66	-317.47	62.276	354.16	-412.08	742.78	177.87	-344.6	676.38	234.31	-402.59	652.45	186.33	-361.61	769.9	222.33	-409.93	561.11	197.64	-381.42	555.82	321.34	-584.4	428.11	196.27	-579.95	339.04	195.37	-639.06	379.16	208.41	-530.22	389.9	189.1	-700.71	252.3	199.87	-686.26	253.89	288.99	-786.11	272.9	244.39	-806.68	247.31	270.74	-797.17	257.32	210.2	-670.85	132.36	169.82	-669.91	105.71	285.8	-599.96	76.359	236.2	-613.35	1551.6	353.15	-669.18	1279.3	352.34
208	0.8625	-421.26	1294.4	353.4	-545.27	1497.3	526.53	-562.43	1500.7	174.82	-505.38	1816.8	354.55	-466.48	1064	482.61	-459.92	1057.6	228.72	NaN	NaN	NaN	-665.36	1077	308.4	-523.62	987.32	530.65	-552.33	976.19	175.81	-554.3	1135	513.03	-536.33	1127.1	192.74	-678.7	1042.6	353.47	-501.58	734.41	510.59	-439.04	660	473.95	-507.21	648.44	486.04	-431.35	748.57	496.02	-478.14	540.89	467.21	-467.94	552.36	339.8	-540.44	315.33	448.1	-484.2	247.86	425.62	-551.33	240.46	427.91	-475.72	321.37	444.24	-531.05	110.64	395.15	-514.16	125.84	312.82	-595.13	73.744	340.61	-583.95	43.929	309.51	-588.37	40.68	374.23	-412.23	36.176	423.97	-381.75	50.706	304.67	-317.41	62.117	354.18	-404.48	744.79	178.54	-336.81	678.94	235.44	-394.18	654.52	186.96	-354.58	772.35	223.4	-400.94	563.07	198.3	-372.99	558	322.04	-573.74	427.72	196.33	-568.04	338.74	194.99	-627.69	377.92	208.15	-519.02	390.31	188.97	-687.36	250	198.97	-673.22	251.62	288.13	-773.56	268.57	243.13	-793.7	242.46	269.28	-784.07	252.87	208.84	-654.69	130.93	168.77	-653.83	104.01	284.7	-582.88	76.437	235.37	-608.22	1552.1	353.24	-664.22	1279.9	352.62
209	0.86667	-416.35	1295	353.52	-540.05	1497.9	526.61	-557.49	1501.1	174.91	-499.98	1817.2	354.45	-461.83	1064.4	482.87	-455.01	1058.4	228.99	NaN	NaN	NaN	-660.52	1077.6	308.46	-519.08	987.65	530.74	-546.97	977.07	175.84	-549.48	1135.5	513.19	-531.52	1127.8	192.96	-673.87	1043.2	353.5	-498.46	734.63	510.59	-436.31	659.86	473.98	-504.56	648.67	486.11	-428.14	748.39	495.98	-476.31	540.88	467.18	-465.86	552.28	339.76	-539.5	315.52	448.09	-483.5	247.84	425.6	-550.67	240.7	427.91	-474.74	321.32	444.23	-530.88	110.76	395.12	-513.94	125.92	312.85	-595.13	73.854	340.58	-584.05	43.987	309.47	-588.33	40.789	374.22	-412.21	36.132	423.99	-381.7	50.647	304.67	-317.35	61.966	354.21	-396.98	746.75	179.2	-329.12	681.45	236.55	-385.9	656.54	187.61	-347.62	774.73	224.43	-392.07	564.97	198.99	-364.71	560.15	322.74	-563.07	427.18	196.39	-556.08	338.3	194.67	-616.27	376.5	207.91	-507.81	390.6	188.87	-673.87	247.51	198.13	-660.04	249.18	287.33	-760.82	264.03	241.92	-780.51	237.41	267.88	-770.79	248.18	207.53	-638.4	129.34	167.82	-637.58	102.22	283.71	-565.67	76.427	234.66	-603.07	1552.6	353.33	-659.25	1280.4	352.89
